<svg xmlns="http://www.w3.org/2000/svg" viewBox="0 0 94.9 63.04"><defs><style>.cls-1{fill:#939393;}</style></defs><g id="Capa_2" data-name="Capa 2"><g id="Capa_1-2" data-name="Capa 1"><path class="cls-1" d="M47.63,26.61c7.5-7.84,14.13-15.06,21.07-22A14.88,14.88,0,0,1,86.61,1.79a14.46,14.46,0,0,1,8,15.72,18.39,18.39,0,0,1-4.62,9C79.81,37.23,69.27,47.62,58.72,58c-6.89,6.78-15.84,6.7-22.62,0Q20.73,42.66,5.46,27.27c-6.92-7-7.28-16.16-1-22.61s15.84-6.13,23,1.08C34,12.33,40.35,19.07,47.63,26.61Z"/></g></g></svg>