<?xml version="1.0" encoding="utf-8"?>
<!-- Generator: Adobe Illustrator 25.3.0, SVG Export Plug-In . SVG Version: 6.00 Build 0)  -->
<svg version="1.1" id="Capa_1" xmlns="http://www.w3.org/2000/svg" xmlns:xlink="http://www.w3.org/1999/xlink" x="0px" y="0px"
	 viewBox="0 0 94.9 63" style="enable-background:new 0 0 94.9 63;" xml:space="preserve">
<g id="Capa_2_1_">
	<g id="Capa_1-2">
		<path d="M47.6,26.6c7.5-7.8,14.1-15.1,21.1-22c4.6-4.9,12-6,17.9-2.8c5.9,2.8,9.2,9.3,8,15.7c-0.7,3.4-2.3,6.5-4.6,9
			C79.8,37.2,69.3,47.6,58.7,58c-6.9,6.8-15.8,6.7-22.6,0C25.9,47.8,15.6,37.5,5.5,27.3c-6.9-7-7.3-16.2-1-22.6s15.8-6.1,23,1.1
			C34,12.3,40.3,19.1,47.6,26.6z"/>
	</g>
</g>
</svg>
